<?xml version="1.0" encoding="UTF-8"?>
<svg width="258px" height="59px" viewBox="0 0 258 59" version="1.1" xmlns="http://www.w3.org/2000/svg" xmlns:xlink="http://www.w3.org/1999/xlink">
    <!-- Generator: Sketch 49.3 (51167) - http://www.bohemiancoding.com/sketch -->
    <title>logo</title>
    <desc>Created with Sketch.</desc>
    <defs></defs>
    <g id="Page-1" stroke="none" stroke-width="1" fill="none" fill-rule="evenodd">
        <g id="Find-location-suggestion" transform="translate(-254.000000, -154.000000)" fill="#FFFFFF" fill-rule="nonzero">
            <g id="logo" transform="translate(253.000000, 154.000000)">
                <g id="Group">
                    <path d="M42.6111111,11.0909091 C51.8194444,11.0909091 59.0416667,18.5454545 59.0416667,27.6363636 C59.0416667,28.7272727 58.8611111,29.8181818 58.6805556,30.9090909 C59.4027778,29.0909091 59.7638889,27.0909091 59.7638889,25.0909091 C59.7638889,15.8181818 52.3611111,8.54545455 43.3333333,8.54545455 C35.3888889,8.54545455 28.7083333,14.3636364 27.0833333,22 C29.4305556,15.6363636 35.5694444,11.0909091 42.6111111,11.0909091 Z" id="Shape"></path>
                    <path d="M23.8333333,8.90909091 C29.4305556,1.63636364 39.7222222,0.363636364 46.9444444,6 C47.8472222,6.72727273 48.5694444,7.45454545 49.2916667,8.18181818 C48.2083333,6.54545455 46.9444444,5.09090909 45.3194444,3.81818182 C38.0972222,-1.81818182 27.8055556,-0.545454545 22.2083333,6.72727273 C17.3333333,13.0909091 17.6944444,22 22.75,27.8181818 C19.3194444,22.1818182 19.5,14.5454545 23.8333333,8.90909091 Z" id="Shape"></path>
                    <path d="M10.4722222,22.3636364 C8.30555556,13.4545455 13.5416667,4.36363636 22.3888889,2.18181818 C23.4722222,1.81818182 24.5555556,1.81818182 25.6388889,1.63636364 C23.8333333,1.45454545 21.8472222,1.63636364 19.8611111,2 C11.0138889,4.18181818 5.59722222,13.2727273 7.94444444,22.1818182 C9.93055556,30 17.1527778,35.0909091 24.7361111,34.7272727 C18.2361111,34.1818182 12.2777778,29.2727273 10.4722222,22.3636364 Z" id="Shape"></path>
                    <path d="M13,41.2727273 C4.69444444,37.6363636 0.902777778,27.8181818 4.51388889,19.4545455 C4.875,18.3636364 5.41666667,17.4545455 6.13888889,16.5454545 C4.875,18 3.79166667,19.6363636 2.88888889,21.4545455 C-0.722222222,29.8181818 3.06944444,39.6363636 11.375,43.2727273 C18.7777778,46.5454545 27.0833333,44 31.5972222,37.4545455 C26.9027778,42.3636364 19.5,44.1818182 13,41.2727273 Z" id="Shape"></path>
                    <path d="M29.25,50.9090909 C21.3055556,55.2727273 11.1944444,52.3636364 6.86111111,44.1818182 C6.31944444,43.2727273 5.95833333,42.1818182 5.59722222,41.0909091 C5.95833333,42.9090909 6.5,44.9090909 7.40277778,46.5454545 C11.7361111,54.5454545 21.8472222,57.6363636 29.7916667,53.2727273 C36.8333333,49.4545455 39.9027778,41.0909091 37.7361111,33.6363636 C38.6388889,40.5454545 35.5694444,47.4545455 29.25,50.9090909 Z" id="Shape"></path>
                    <path d="M46.7638889,43.8181818 C45.3194444,52.9090909 36.8333333,59.0909091 27.8055556,57.6363636 C26.7222222,57.4545455 25.6388889,57.0909091 24.7361111,56.7272727 C26.3611111,57.6363636 28.1666667,58.3636364 30.1527778,58.7272727 C39.1805556,60.1818182 47.6666667,54 49.1111111,44.9090909 C50.375,36.9090909 45.8611111,29.4545455 38.6388889,26.7272727 C44.5972222,30 48.0277778,36.7272727 46.7638889,43.8181818 Z" id="Shape"></path>
                    <path d="M52,25.6363636 C58.1388889,32.3636364 57.7777778,42.9090909 51.0972222,49.0909091 C50.375,49.8181818 49.4722222,50.5454545 48.5694444,51.0909091 C50.375,50.3636364 52,49.2727273 53.4444444,48 C60.125,41.8181818 60.4861111,31.2727273 54.3472222,24.5454545 C48.9305556,18.5454545 40.0833333,17.6363636 33.5833333,21.6363636 C39.9027778,18.9090909 47.3055556,20.3636364 52,25.6363636 Z" id="Shape"></path>
                </g>
                <g id="Group" transform="translate(83.055556, 9.090909)">
                    <path d="M25.2777778,23.2727273 C26.5416667,24.7272727 27.2638889,26.7272727 27.2638889,29.2727273 C27.2638889,32.5454545 26.1805556,35.0909091 24.1944444,36.7272727 C22.2083333,38.3636364 19.6805556,39.2727273 16.6111111,39.2727273 L3.06944444,39.2727273 C2.70833333,39.2727273 2.34722222,39.0909091 1.98611111,38.9090909 C1.625,38.5454545 1.625,38.1818182 1.625,37.8181818 L1.625,5.27272727 C1.625,4.90909091 1.80555556,4.54545455 1.98611111,4.18181818 C2.34722222,3.81818182 2.70833333,3.81818182 3.06944444,3.81818182 L16.4305556,3.81818182 C19.3194444,3.81818182 21.4861111,4.54545455 23.1111111,6.18181818 C24.7361111,7.81818182 25.4583333,9.81818182 25.4583333,12.5454545 C25.4583333,14.3636364 25.0972222,16 24.1944444,17.4545455 C23.2916667,18.9090909 22.0277778,20 20.4027778,20.5454545 C22.3888889,20.7272727 24.0138889,21.6363636 25.2777778,23.2727273 Z M20.5833333,8.18181818 C19.5,7.09090909 17.875,6.54545455 16.0694444,6.54545455 L4.875,6.54545455 L4.875,19.2727273 L16.0694444,19.2727273 C17.875,19.2727273 19.3194444,18.7272727 20.5833333,17.4545455 C21.6666667,16.3636364 22.3888889,14.7272727 22.3888889,12.5454545 C22.2083333,10.5454545 21.6666667,9.09090909 20.5833333,8.18181818 Z M21.8472222,34.3636364 C23.2916667,33.2727273 24.0138889,31.4545455 24.0138889,29.0909091 C24.0138889,26.7272727 23.2916667,24.9090909 21.8472222,23.8181818 C20.4027778,22.7272727 18.5972222,22.1818182 16.25,22.1818182 L4.69444444,22.1818182 L4.69444444,36 L16.4305556,36 C18.5972222,36.1818182 20.5833333,35.4545455 21.8472222,34.3636364 Z" id="Shape"></path>
                    <path d="M47.4861111,12.9090909 C48.0277778,13.0909091 48.2083333,13.6363636 48.2083333,14.1818182 C48.2083333,14.7272727 48.0277778,15.0909091 47.8472222,15.2727273 C47.6666667,15.6363636 47.3055556,15.6363636 46.9444444,15.6363636 C46.7638889,15.6363636 46.4027778,15.6363636 46.0416667,15.4545455 C45.5,15.2727273 45.1388889,15.2727273 44.5972222,15.2727273 C43.3333333,15.2727273 42.0694444,15.8181818 40.8055556,16.7272727 C39.5416667,17.6363636 38.6388889,18.9090909 37.7361111,20.5454545 C37.0138889,22 36.4722222,23.6363636 36.4722222,25.0909091 L36.4722222,37.6363636 C36.4722222,38 36.2916667,38.3636364 36.1111111,38.7272727 C35.75,39.0909091 35.3888889,39.0909091 35.0277778,39.0909091 C34.6666667,39.0909091 34.3055556,38.9090909 33.9444444,38.7272727 C33.5833333,38.3636364 33.5833333,38 33.5833333,37.6363636 L33.5833333,14.9090909 C33.5833333,14.5454545 33.7638889,14.1818182 33.9444444,13.8181818 C34.3055556,13.4545455 34.6666667,13.4545455 35.0277778,13.4545455 C35.3888889,13.4545455 35.75,13.6363636 36.1111111,13.8181818 C36.4722222,14.1818182 36.4722222,14.5454545 36.4722222,14.9090909 L36.4722222,19.4545455 C37.1944444,17.4545455 38.4583333,16 39.9027778,14.7272727 C41.5277778,13.4545455 43.3333333,12.7272727 45.5,12.7272727 C46.4027778,12.5454545 46.9444444,12.5454545 47.4861111,12.9090909 Z" id="Shape"></path>
                    <path d="M73.3055556,25.6363636 C72.9444444,26 72.5833333,26 72.2222222,26 L53.0833333,26 C53.0833333,28 53.4444444,29.8181818 54.3472222,31.4545455 C55.25,33.0909091 56.3333333,34.3636364 57.9583333,35.2727273 C59.4027778,36.1818182 61.3888889,36.7272727 63.375,36.7272727 C65,36.7272727 66.4444444,36.3636364 67.7083333,35.6363636 C68.9722222,34.9090909 70.0555556,34.1818182 70.7777778,33.0909091 C71.1388889,32.7272727 71.5,32.5454545 71.8611111,32.5454545 C72.2222222,32.5454545 72.5833333,32.7272727 72.7638889,32.9090909 C72.9444444,33.0909091 73.125,33.4545455 73.125,33.8181818 C73.125,34.1818182 72.9444444,34.5454545 72.5833333,34.9090909 C71.5,36.1818182 70.2361111,37.2727273 68.4305556,38.1818182 C66.8055556,39.0909091 65,39.4545455 63.1944444,39.4545455 C60.6666667,39.4545455 58.3194444,38.9090909 56.3333333,37.8181818 C54.3472222,36.7272727 52.7222222,35.0909091 51.6388889,33.0909091 C50.5555556,31.0909091 50.0138889,28.7272727 50.0138889,26 C50.0138889,23.2727273 50.5555556,20.7272727 51.6388889,18.7272727 C52.7222222,16.7272727 54.1666667,15.0909091 55.9722222,14 C57.7777778,12.9090909 59.7638889,12.3636364 61.75,12.3636364 C63.7361111,12.3636364 65.7222222,12.9090909 67.3472222,13.8181818 C69.1527778,14.7272727 70.5972222,16.1818182 71.6805556,18 C72.7638889,19.8181818 73.3055556,22 73.4861111,24.5454545 C73.8472222,25.0909091 73.6666667,25.4545455 73.3055556,25.6363636 Z M56.6944444,17.4545455 C55.0694444,18.7272727 53.9861111,20.7272727 53.4444444,23.2727273 L70.5972222,23.2727273 L70.5972222,22.9090909 C70.4166667,21.4545455 69.875,20 69.1527778,18.9090909 C68.25,17.8181818 67.3472222,16.9090909 65.9027778,16.3636364 C64.6388889,15.8181818 63.375,15.4545455 61.9305556,15.4545455 C60.125,15.4545455 58.3194444,16.1818182 56.6944444,17.4545455 Z" id="Shape"></path>
                    <path d="M101.472222,25.6363636 C101.111111,26 100.75,26 100.388889,26 L81.25,26 C81.25,28 81.6111111,29.8181818 82.5138889,31.4545455 C83.4166667,33.0909091 84.5,34.3636364 86.125,35.2727273 C87.5694444,36.1818182 89.5555556,36.7272727 91.5416667,36.7272727 C93.1666667,36.7272727 94.6111111,36.3636364 95.875,35.6363636 C97.1388889,34.9090909 98.2222222,34.1818182 98.9444444,33.0909091 C99.3055556,32.7272727 99.6666667,32.5454545 100.027778,32.5454545 C100.388889,32.5454545 100.75,32.7272727 100.930556,32.9090909 C101.111111,33.0909091 101.291667,33.4545455 101.291667,33.8181818 C101.291667,34.1818182 101.111111,34.5454545 100.75,34.9090909 C99.6666667,36.1818182 98.4027778,37.2727273 96.5972222,38.1818182 C94.9722222,39.0909091 93.1666667,39.4545455 91.3611111,39.4545455 C88.8333333,39.4545455 86.4861111,38.9090909 84.5,37.8181818 C82.5138889,36.7272727 80.8888889,35.0909091 79.8055556,33.0909091 C78.7222222,31.0909091 78.1805556,28.7272727 78.1805556,26 C78.1805556,23.2727273 78.7222222,20.7272727 79.8055556,18.7272727 C80.8888889,16.7272727 82.3333333,15.0909091 84.1388889,14 C85.9444444,12.9090909 87.9305556,12.3636364 89.9166667,12.3636364 C91.9027778,12.3636364 93.8888889,12.9090909 95.6944444,13.8181818 C97.5,14.7272727 98.9444444,16.1818182 100.027778,18 C101.111111,19.8181818 101.652778,22 101.833333,24.5454545 C101.833333,25.0909091 101.833333,25.4545455 101.472222,25.6363636 Z M84.6805556,17.4545455 C83.0555556,18.7272727 81.9722222,20.7272727 81.4305556,23.2727273 L98.5833333,23.2727273 L98.5833333,22.9090909 C98.4027778,21.4545455 97.8611111,20 97.1388889,18.9090909 C96.2361111,17.8181818 95.3333333,16.9090909 93.8888889,16.3636364 C92.625,15.8181818 91.3611111,15.4545455 89.9166667,15.4545455 C88.2916667,15.4545455 86.4861111,16.1818182 84.6805556,17.4545455 Z" id="Shape"></path>
                    <path d="M113.208333,16 L113.208333,33.0909091 C113.208333,34.3636364 113.388889,35.2727273 113.930556,35.6363636 C114.472222,36.1818182 115.013889,36.3636364 115.736111,36.3636364 C115.916667,36.3636364 116.277778,36.3636364 116.458333,36.1818182 C116.819444,36.1818182 117,36 117.180556,36 C117.541667,36 117.722222,36.1818182 117.902778,36.3636364 C118.083333,36.5454545 118.263889,36.9090909 118.263889,37.2727273 C118.263889,37.8181818 118.083333,38.1818182 117.541667,38.5454545 C117,38.9090909 116.277778,39.0909091 115.555556,39.0909091 C114.652778,39.0909091 113.75,39.0909091 113.208333,38.9090909 C112.486111,38.7272727 111.763889,38.1818182 111.222222,37.4545455 C110.5,36.5454545 110.319444,35.2727273 110.319444,33.4545455 L110.319444,16.1818182 L106.708333,16.1818182 C106.347222,16.1818182 105.986111,16 105.625,15.8181818 C105.263889,15.6363636 105.263889,15.2727273 105.263889,14.7272727 C105.263889,14.3636364 105.444444,14 105.625,13.6363636 C105.986111,13.4545455 106.347222,13.2727273 106.708333,13.2727273 L110.319444,13.2727273 L110.319444,7.63636364 C110.319444,7.27272727 110.5,6.90909091 110.680556,6.54545455 C111.041667,6.18181818 111.402778,6.18181818 111.763889,6.18181818 C112.125,6.18181818 112.486111,6.36363636 112.847222,6.54545455 C113.208333,6.90909091 113.208333,7.27272727 113.208333,7.63636364 L113.208333,13.2727273 L118.263889,13.2727273 C118.625,13.2727273 118.986111,13.4545455 119.166667,13.8181818 C119.527778,14.1818182 119.527778,14.5454545 119.527778,14.9090909 C119.527778,15.2727273 119.347222,15.6363636 119.166667,15.8181818 C118.986111,16 118.625,16.1818182 118.083333,16.1818182 L113.208333,16.1818182 L113.208333,16 Z" id="Shape"></path>
                    <path d="M143.902778,15.8181818 C145.347222,17.8181818 146.069444,20.1818182 146.069444,23.2727273 L146.069444,37.6363636 C146.069444,38 145.888889,38.3636364 145.708333,38.7272727 C145.347222,39.0909091 144.986111,39.0909091 144.625,39.0909091 C144.263889,39.0909091 143.902778,38.9090909 143.541667,38.7272727 C143.180556,38.3636364 143.180556,38 143.180556,37.6363636 L143.180556,23.2727273 C143.180556,21.0909091 142.638889,19.2727273 141.555556,17.8181818 C140.472222,16.3636364 138.847222,15.8181818 136.680556,15.8181818 C135.236111,15.8181818 133.972222,16.1818182 132.708333,16.9090909 C131.444444,17.6363636 130.361111,18.5454545 129.638889,19.6363636 C128.916667,20.7272727 128.555556,22 128.555556,23.2727273 L128.555556,37.6363636 C128.555556,38 128.375,38.3636364 128.194444,38.7272727 C127.833333,39.0909091 127.472222,39.0909091 127.111111,39.0909091 C126.75,39.0909091 126.388889,38.9090909 126.027778,38.7272727 C125.666667,38.3636364 125.666667,38 125.666667,37.6363636 L125.666667,3.09090909 C125.666667,2.72727273 125.847222,2.36363636 126.027778,2 C126.388889,1.63636364 126.75,1.63636364 127.111111,1.63636364 C127.472222,1.63636364 127.833333,1.81818182 128.194444,2 C128.555556,2.36363636 128.555556,2.72727273 128.555556,3.09090909 L128.555556,18 C129.458333,16.5454545 130.722222,15.2727273 132.347222,14.3636364 C133.972222,13.4545455 135.597222,12.9090909 137.222222,12.9090909 C140.111111,12.9090909 142.458333,13.8181818 143.902778,15.8181818 Z" id="Shape"></path>
                    <path d="M175.319444,25.6363636 C174.958333,26 174.597222,26 174.236111,26 L155.277778,26 C155.277778,28 155.638889,29.8181818 156.541667,31.4545455 C157.444444,33.0909091 158.527778,34.3636364 160.152778,35.2727273 C161.597222,36.1818182 163.583333,36.7272727 165.569444,36.7272727 C167.194444,36.7272727 168.638889,36.3636364 169.902778,35.6363636 C171.166667,34.9090909 172.25,34.1818182 172.972222,33.0909091 C173.333333,32.7272727 173.694444,32.5454545 174.055556,32.5454545 C174.416667,32.5454545 174.777778,32.7272727 174.958333,32.9090909 C175.138889,33.0909091 175.319444,33.4545455 175.319444,33.8181818 C175.319444,34.1818182 175.138889,34.5454545 174.777778,34.9090909 C173.694444,36.1818182 172.430556,37.2727273 170.625,38.1818182 C169,39.0909091 167.194444,39.4545455 165.388889,39.4545455 C162.861111,39.4545455 160.513889,38.9090909 158.527778,37.8181818 C156.541667,36.7272727 154.916667,35.0909091 153.833333,33.0909091 C152.75,31.0909091 152.208333,28.7272727 152.208333,26 C152.208333,23.2727273 152.75,20.7272727 153.833333,18.7272727 C154.916667,16.7272727 156.361111,15.0909091 158.166667,14 C159.972222,12.9090909 161.958333,12.3636364 163.944444,12.3636364 C165.930556,12.3636364 167.916667,12.9090909 169.541667,13.8181818 C171.347222,14.7272727 172.791667,16.1818182 173.875,18 C174.958333,19.8181818 175.5,22 175.680556,24.5454545 C175.861111,25.0909091 175.680556,25.4545455 175.319444,25.6363636 Z M158.708333,17.4545455 C157.083333,18.7272727 156,20.7272727 155.458333,23.2727273 L172.611111,23.2727273 L172.611111,22.9090909 C172.430556,21.4545455 171.888889,20 171.166667,18.9090909 C170.263889,17.8181818 169.180556,16.9090909 167.916667,16.3636364 C166.652778,15.8181818 165.388889,15.4545455 163.944444,15.4545455 C162.138889,15.4545455 160.333333,16.1818182 158.708333,17.4545455 Z" id="Shape"></path>
                </g>
            </g>
        </g>
    </g>
</svg>