<svg width="229" height="60" xmlns="http://www.w3.org/2000/svg"><g fill="#FFF" fill-rule="evenodd"><path d="M28.778 36.222c0-.859.697-1.555 1.556-1.555h10.889a1.556 1.556 0 1 1 0 3.11h-10.89c-.858 0-1.555-.696-1.555-1.555M28 40.889h4.667a1.555 1.555 0 1 1 0 3.111H28a1.556 1.556 0 0 1 0-3.11m-1.555-12.445h17.11a1.555 1.555 0 1 1 0 3.11h-17.11a1.555 1.555 0 1 1 0-3.11m-9.334-6.223h23.334a1.556 1.556 0 0 1 0 3.11H17.11a1.555 1.555 0 1 1 0-3.11m28-3.111H15.556a1.556 1.556 0 1 1 0-3.111H45.11a1.556 1.556 0 0 1 0 3.11"/><path d="M30 2.857C15.033 2.857 2.857 15.033 2.857 30S15.033 57.143 30 57.143 57.143 44.967 57.143 30 44.967 2.857 30 2.857M30 60C13.458 60 0 46.542 0 30S13.458 0 30 0s30 13.458 30 30-13.458 30-30 30M92.592 27.632c1.76.44 3.197 1.32 4.312 2.64 1.115 1.32 1.672 3.036 1.672 5.148 0 2.875-.887 5.023-2.662 6.446S91.932 44 89.292 44H77.456c-.381 0-.697-.125-.946-.374-.25-.25-.374-.565-.374-.946V14.52c0-.381.125-.697.374-.946.25-.25.565-.374.946-.374h11.66c2.464 0 4.393.675 5.786 2.024 1.393 1.35 2.09 3.197 2.09 5.544 0 1.555-.381 2.948-1.144 4.18-.763 1.232-1.848 2.127-3.256 2.684zm1.584-6.644c0-1.613-.477-2.882-1.43-3.806-.953-.924-2.28-1.386-3.982-1.386h-9.812v11h9.812c1.584-.03 2.882-.543 3.894-1.54s1.518-2.42 1.518-4.268zM89.16 41.404c1.965 0 3.557-.499 4.774-1.496s1.826-2.493 1.826-4.488c0-2.053-.623-3.564-1.87-4.532s-2.853-1.452-4.818-1.452h-10.12v11.968H89.16zm25.476-20.416c.587 0 1.115.117 1.584.352.47.235.704.587.704 1.056 0 .41-.117.74-.352.99a1.11 1.11 0 0 1-.836.374c-.147 0-.433-.073-.858-.22a3.714 3.714 0 0 0-1.21-.22c-1.085 0-2.163.418-3.234 1.254-1.07.836-1.95 1.914-2.64 3.234-.69 1.32-1.034 2.655-1.034 4.004V42.68c0 .381-.125.697-.374.946-.25.25-.565.374-.946.374s-.697-.125-.946-.374c-.25-.25-.374-.565-.374-.946V22.968c0-.381.125-.697.374-.946.25-.25.565-.374.946-.374s.697.125.946.374c.25.25.374.565.374.946v3.872c.675-1.672 1.694-3.058 3.058-4.158 1.364-1.1 2.97-1.665 4.818-1.694zm25.432 10.472c0 .352-.132.653-.396.902-.264.25-.572.374-.924.374h-16.632c0 1.76.36 3.337 1.078 4.73a8.144 8.144 0 0 0 3.08 3.3c1.335.807 2.911 1.21 4.73 1.21 1.408 0 2.67-.293 3.784-.88 1.115-.587 2.01-1.335 2.684-2.244.323-.264.63-.396.924-.396.293 0 .557.117.792.352s.352.499.352.792c0 .323-.147.63-.44.924-.939 1.144-2.12 2.083-3.542 2.816a9.71 9.71 0 0 1-4.51 1.1c-2.259 0-4.253-.484-5.984-1.452a10.291 10.291 0 0 1-4.048-4.07c-.968-1.745-1.452-3.762-1.452-6.05 0-2.405.477-4.51 1.43-6.314.953-1.804 2.222-3.183 3.806-4.136 1.584-.953 3.27-1.43 5.06-1.43 1.76 0 3.41.41 4.95 1.232 1.54.821 2.794 2.024 3.762 3.608s1.467 3.461 1.496 5.632zm-10.208-7.92c-1.701 0-3.278.587-4.73 1.76-1.452 1.173-2.383 2.86-2.794 5.06h15.004v-.352c-.147-1.32-.587-2.471-1.32-3.454a7.164 7.164 0 0 0-2.75-2.244 7.978 7.978 0 0 0-3.41-.77zm34.672 7.92c0 .352-.132.653-.396.902-.264.25-.572.374-.924.374H146.58c0 1.76.36 3.337 1.078 4.73a8.144 8.144 0 0 0 3.08 3.3c1.335.807 2.911 1.21 4.73 1.21 1.408 0 2.67-.293 3.784-.88 1.115-.587 2.01-1.335 2.684-2.244.323-.264.63-.396.924-.396.293 0 .557.117.792.352s.352.499.352.792c0 .323-.147.63-.44.924-.939 1.144-2.12 2.083-3.542 2.816a9.71 9.71 0 0 1-4.51 1.1c-2.259 0-4.253-.484-5.984-1.452a10.291 10.291 0 0 1-4.048-4.07c-.968-1.745-1.452-3.762-1.452-6.05 0-2.405.477-4.51 1.43-6.314.953-1.804 2.222-3.183 3.806-4.136 1.584-.953 3.27-1.43 5.06-1.43 1.76 0 3.41.41 4.95 1.232 1.54.821 2.794 2.024 3.762 3.608s1.467 3.461 1.496 5.632zm-10.208-7.92c-1.701 0-3.278.587-4.73 1.76-1.452 1.173-2.383 2.86-2.794 5.06h15.004v-.352c-.147-1.32-.587-2.471-1.32-3.454a7.164 7.164 0 0 0-2.75-2.244 7.978 7.978 0 0 0-3.41-.77zm20.064.528v14.74c0 1.115.205 1.87.616 2.266.41.396.953.594 1.628.594.176 0 .396-.037.66-.11.264-.073.47-.11.616-.11.264 0 .491.11.682.33.19.22.286.477.286.77 0 .41-.235.755-.704 1.034-.47.279-1.027.418-1.672.418-.792 0-1.496-.073-2.112-.22-.616-.147-1.21-.587-1.782-1.32-.572-.733-.858-1.907-.858-3.52V24.068h-3.212c-.352 0-.653-.117-.902-.352a1.158 1.158 0 0 1-.374-.88c0-.352.125-.645.374-.88.25-.235.55-.352.902-.352h3.212V16.72c0-.381.125-.697.374-.946.25-.25.565-.374.946-.374s.697.125.946.374c.25.25.374.565.374.946v4.884h4.4c.323 0 .609.132.858.396.25.264.374.557.374.88 0 .352-.117.638-.352.858-.235.22-.528.33-.88.33h-4.4zm20.768-2.728c2.64 0 4.605.829 5.896 2.486 1.29 1.657 1.936 3.791 1.936 6.402V42.68c0 .381-.125.697-.374.946-.25.25-.565.374-.946.374s-.697-.125-.946-.374c-.25-.25-.374-.565-.374-.946V30.228c0-1.907-.455-3.454-1.364-4.642-.91-1.188-2.332-1.782-4.268-1.782a7.327 7.327 0 0 0-3.498.88c-1.1.587-1.987 1.371-2.662 2.354-.675.983-1.012 2.046-1.012 3.19V42.68c0 .381-.125.697-.374.946-.25.25-.565.374-.946.374s-.697-.125-.946-.374c-.25-.25-.374-.565-.374-.946V12.76c0-.381.125-.697.374-.946.25-.25.565-.374.946-.374s.697.125.946.374c.25.25.374.565.374.946v12.892c.792-1.261 1.892-2.295 3.3-3.102 1.408-.807 2.845-1.21 4.312-1.21zm33.748 10.12c0 .352-.132.653-.396.902-.264.25-.572.374-.924.374h-16.632c0 1.76.36 3.337 1.078 4.73a8.144 8.144 0 0 0 3.08 3.3c1.335.807 2.911 1.21 4.73 1.21 1.408 0 2.67-.293 3.784-.88 1.115-.587 2.01-1.335 2.684-2.244.323-.264.63-.396.924-.396.293 0 .557.117.792.352s.352.499.352.792c0 .323-.147.63-.44.924-.939 1.144-2.12 2.083-3.542 2.816a9.71 9.71 0 0 1-4.51 1.1c-2.259 0-4.253-.484-5.984-1.452a10.291 10.291 0 0 1-4.048-4.07c-.968-1.745-1.452-3.762-1.452-6.05 0-2.405.477-4.51 1.43-6.314.953-1.804 2.222-3.183 3.806-4.136 1.584-.953 3.27-1.43 5.06-1.43 1.76 0 3.41.41 4.95 1.232 1.54.821 2.794 2.024 3.762 3.608s1.467 3.461 1.496 5.632zm-10.208-7.92c-1.701 0-3.278.587-4.73 1.76-1.452 1.173-2.383 2.86-2.794 5.06h15.004v-.352c-.147-1.32-.587-2.471-1.32-3.454a7.164 7.164 0 0 0-2.75-2.244 7.978 7.978 0 0 0-3.41-.77z"/></g></svg>